<?xml version="1.0" standalone="no"?>
<!DOCTYPE svg PUBLIC "-//W3C//DTD SVG 20010904//EN"
 "http://www.w3.org/TR/2001/REC-SVG-20010904/DTD/svg10.dtd">
<svg version="1.0" xmlns="http://www.w3.org/2000/svg"
 width="512.000000pt" height="512.000000pt" viewBox="0 0 512.000000 512.000000"
 preserveAspectRatio="xMidYMid meet">

<g transform="translate(0.000000,512.000000) scale(0.100000,-0.100000)"
fill="#ffffff" stroke="none">
<path d="M1925 5106 c-216 -36 -381 -106 -554 -237 -180 -135 -330 -344 -404
-559 -66 -192 -62 -89 -62 -1750 0 -1418 1 -1510 18 -1590 91 -426 388 -767
787 -903 180 -61 189 -62 850 -62 547 0 613 2 690 18 487 104 843 460 947 947
17 80 18 172 18 1590 0 1418 -1 1510 -18 1590 -91 426 -389 767 -787 903 -178
61 -174 60 -815 63 -448 2 -609 -1 -670 -10z m1320 -419 c258 -80 462 -283
542 -542 l28 -90 0 -1495 0 -1495 -28 -90 c-80 -259 -283 -462 -542 -542 l-90
-28 -595 0 -595 0 -90 28 c-259 80 -462 283 -542 542 l-28 90 0 1495 0 1495
28 90 c74 240 273 452 493 525 144 48 155 49 759 47 l570 -2 90 -28z"/>
<path d="M2492 4299 c-48 -14 -109 -80 -123 -131 -23 -89 12 -182 88 -229 57
-36 154 -34 210 3 62 41 88 90 88 168 0 77 -26 127 -85 166 -43 29 -125 39
-178 23z"/>
<path d="M2492 3499 c-48 -14 -109 -80 -123 -131 -23 -89 12 -182 88 -229 57
-36 154 -34 210 3 62 41 88 90 88 168 0 77 -26 127 -85 166 -43 29 -125 39
-178 23z"/>
<path d="M2492 2699 c-48 -14 -109 -80 -123 -131 -23 -89 12 -182 88 -229 57
-36 154 -34 210 3 62 41 88 90 88 168 0 77 -26 127 -85 166 -43 29 -125 39
-178 23z"/>
<path d="M1814 1909 c-76 -72 -140 -134 -142 -139 -2 -4 198 -220 444 -480
l447 -472 27 29 c62 64 826 881 844 901 l19 22 -104 98 c-57 54 -123 115 -145
135 l-41 37 -297 -315 c-164 -173 -301 -315 -305 -315 -4 0 -142 142 -305 315
-164 173 -299 315 -300 315 -1 0 -65 -59 -142 -131z"/>
</g>
</svg>
