<?xml version="1.0" standalone="no"?>
<!DOCTYPE svg PUBLIC "-//W3C//DTD SVG 20010904//EN"
 "http://www.w3.org/TR/2001/REC-SVG-20010904/DTD/svg10.dtd">
<svg version="1.0" xmlns="http://www.w3.org/2000/svg"
 width="512.000000pt" height="512.000000pt" viewBox="0 0 512.000000 512.000000"
 preserveAspectRatio="xMidYMid meet">

<g transform="translate(0.000000,512.000000) scale(0.100000,-0.100000)"
fill="#000000" stroke="none">
<path d="M2315 5109 c-485 -50 -943 -235 -1334 -537 -111 -85 -348 -322 -433
-433 -158 -203 -309 -474 -394 -704 -47 -128 -107 -367 -130 -520 -26 -168
-26 -541 0 -710 23 -151 83 -391 131 -521 85 -231 235 -500 393 -703 81 -105
310 -336 412 -417 207 -163 488 -322 724 -409 130 -48 370 -108 521 -131 148
-22 532 -26 670 -6 477 69 858 226 1245 516 109 81 349 316 436 426 161 205
324 492 409 724 48 130 108 370 131 521 14 90 18 179 18 355 0 176 -4 265 -18
355 -23 151 -83 391 -131 521 -87 236 -247 518 -409 724 -82 103 -313 332
-416 412 -368 283 -762 452 -1220 523 -126 19 -477 28 -605 14z m95 -684 l0
-365 -310 0 c-215 0 -310 3 -310 11 0 21 125 255 184 344 82 125 239 280 336
333 41 23 81 42 88 42 9 0 12 -80 12 -365z m363 344 c128 -66 270 -200 373
-354 58 -88 184 -323 184 -344 0 -8 -95 -11 -310 -11 l-310 0 0 365 c0 246 3
365 10 365 6 0 30 -10 53 -21z m-990 -101 c-4 -7 -37 -56 -72 -108 -68 -103
-152 -262 -212 -405 l-38 -90 -290 -3 c-167 -1 -291 2 -291 7 0 13 181 183
269 253 158 126 342 237 531 320 91 40 116 46 103 26z m1627 -14 c183 -74 399
-202 565 -334 89 -71 265 -238 265 -252 0 -4 -131 -7 -291 -6 l-290 3 -38 90
c-60 143 -144 302 -212 405 -85 126 -81 120 -71 120 5 0 37 -12 72 -26z
m-2050 -898 c0 -2 -13 -59 -29 -127 -58 -244 -81 -409 -117 -856 l-6 -63 -449
0 -449 0 0 40 c0 62 28 234 56 349 50 202 132 405 236 589 l42 72 358 0 c197
0 358 -2 358 -4z m1050 -521 l0 -525 -450 0 -451 0 6 78 c27 359 56 558 116
804 l42 168 368 0 369 0 0 -525z m1079 357 c60 -247 92 -469 115 -804 l6 -78
-450 0 -450 0 0 525 0 525 369 0 368 0 42 -168z m1033 86 c98 -176 149 -296
203 -473 38 -125 85 -375 85 -451 l0 -44 -449 0 -449 0 -6 63 c-3 34 -10 125
-16 202 -17 225 -75 577 -126 763 l-6 22 359 0 359 0 46 -82z m-3308 -1330
c36 -448 59 -613 117 -857 16 -68 29 -125 29 -127 0 -2 -161 -4 -358 -4 l-359
0 -51 93 c-107 194 -176 366 -226 568 -28 115 -56 287 -56 349 l0 40 449 0
449 0 6 -62z m1196 -463 l0 -525 -369 0 -368 0 -42 168 c-60 246 -89 445 -116
805 l-6 77 451 0 450 0 0 -525z m1194 448 c-25 -373 -64 -620 -140 -905 l-18
-68 -368 0 -368 0 0 525 0 525 450 0 450 0 -6 -77z m1206 35 c0 -61 -35 -266
-64 -378 -49 -186 -116 -354 -218 -537 l-51 -93 -360 0 -359 0 6 23 c51 185
109 537 126 762 6 77 13 168 16 203 l6 62 449 0 449 0 0 -42z m-3311 -1403
c60 -143 155 -322 225 -425 36 -52 61 -96 57 -98 -12 -4 -165 63 -278 123
-117 62 -245 146 -354 233 -88 70 -269 240 -269 253 0 5 124 8 291 7 l290 -3
38 -90z m911 -270 c0 -246 -3 -365 -10 -365 -17 0 -89 39 -150 80 -77 53 -205
189 -276 295 -58 88 -184 323 -184 344 0 8 95 11 310 11 l310 0 0 -365z m920
354 c0 -21 -120 -246 -180 -336 -71 -109 -202 -250 -280 -303 -61 -41 -133
-80 -150 -80 -7 0 -10 119 -10 365 l0 365 310 0 c215 0 310 -3 310 -11z m901
-7 c-29 -54 -266 -258 -423 -364 -136 -91 -442 -245 -469 -236 -4 2 21 46 57
98 82 120 196 342 255 498 l9 22 290 0 c276 0 290 -1 281 -18z"/>
</g>
</svg>
